<svg width="56" height="60" viewBox="0 0 56 60" fill="none" xmlns="http://www.w3.org/2000/svg">
<mask id="path-1-inside-1_1_412" fill="white">
<path d="M26 0C31.2617 6.27456e-08 36.4309 1.3839 40.9889 4.01281C45.5468 6.64173 49.3331 10.4232 51.9679 14.9777C54.6027 19.5323 55.9932 24.6997 56 29.9614C56.0067 35.2232 54.6295 40.3941 52.0064 44.9555C49.3834 49.5168 45.6068 53.3079 41.0556 55.9486C36.5045 58.5892 31.3388 59.9864 26.0771 59.9999C20.8154 60.0134 15.6427 58.6428 11.078 56.0256C6.51331 53.4084 2.71727 49.6367 0.0708013 45.089L1.37143 44.3321C3.88515 48.6517 7.49078 52.2343 11.8265 54.7202C16.1622 57.2061 21.0755 58.5079 26.0732 58.4951C31.071 58.4822 35.9776 57.1551 40.3004 54.647C44.6233 52.1388 48.2104 48.5378 50.7019 44.2053C53.1934 39.8728 54.5016 34.9612 54.4952 29.9634C54.4887 24.9656 53.1679 20.0574 50.6653 15.7313C48.1627 11.4052 44.5663 7.8134 40.237 5.31635C35.9077 2.8193 30.9978 1.50482 26 1.50482V0Z"/>
</mask>
<path d="M26 0C31.2617 6.27456e-08 36.4309 1.3839 40.9889 4.01281C45.5468 6.64173 49.3331 10.4232 51.9679 14.9777C54.6027 19.5323 55.9932 24.6997 56 29.9614C56.0067 35.2232 54.6295 40.3941 52.0064 44.9555C49.3834 49.5168 45.6068 53.3079 41.0556 55.9486C36.5045 58.5892 31.3388 59.9864 26.0771 59.9999C20.8154 60.0134 15.6427 58.6428 11.078 56.0256C6.51331 53.4084 2.71727 49.6367 0.0708013 45.089L1.37143 44.3321C3.88515 48.6517 7.49078 52.2343 11.8265 54.7202C16.1622 57.2061 21.0755 58.5079 26.0732 58.4951C31.071 58.4822 35.9776 57.1551 40.3004 54.647C44.6233 52.1388 48.2104 48.5378 50.7019 44.2053C53.1934 39.8728 54.5016 34.9612 54.4952 29.9634C54.4887 24.9656 53.1679 20.0574 50.6653 15.7313C48.1627 11.4052 44.5663 7.8134 40.237 5.31635C35.9077 2.8193 30.9978 1.50482 26 1.50482V0Z" stroke="#89A1FF" stroke-width="2" mask="url(#path-1-inside-1_1_412)"/>
</svg>
